<svg xmlns="http://www.w3.org/2000/svg" viewBox="0 0 917.26 308"><defs><style>.cls-1{fill:#e3121d;}.cls-2{fill:#74b271;}.cls-3{fill:#fac82c;}.cls-4{fill:#e69139;}.cls-5{fill:#00c2cb;}</style></defs><title>logo_svg</title><g id="Layer_2" data-name="Layer 2"><g id="Layer_1-2" data-name="Layer 1"><path class="cls-1" d="M159.15,140.7s-7.91-13.68-8-13.82v0c-2.91-4.18-12.72-7.26-24.39-7.26-12.9,0-23.55,3.77-25.07,8.63l-7.26,12.4L86.61,154a4.21,4.21,0,1,0,7.27,4.25l7.79-13.32s8.22-12.65,9.63-12.65a1.37,1.37,0,0,1,1.4,1.4v77.9a6.32,6.32,0,0,0,12.63,0V174.35a1.41,1.41,0,1,1,2.81,0v37.19a6.32,6.32,0,0,0,12.63,0v-77.9a1.39,1.39,0,0,1,1.41-1.4c1.39,0,9.68,12.67,9.68,12.67l7.72,13.37a4.22,4.22,0,0,0,3.62,2.1V147.71Z"/><path class="cls-2" d="M232.13,140.7s-7.91-13.68-8-13.82,0,0,0,0c-2.91-4.18-12.72-7.25-24.39-7.25-12.9,0-23.55,3.76-25.07,8.62l-7.26,12.41-4.15,7.1h0l0,0v12.67a4.2,4.2,0,0,0,3.94-2.63l7.52-12.86s8.22-12.65,9.62-12.65a1.37,1.37,0,0,1,1.41,1.4v77.79a6.38,6.38,0,0,0,6.09,6.42,6.34,6.34,0,0,0,6.54-6.31V174.35a1.41,1.41,0,0,1,2.81,0v37.08a6.38,6.38,0,0,0,6.09,6.42,6.34,6.34,0,0,0,6.54-6.31v-77.9a1.38,1.38,0,0,1,1.4-1.4c1.39,0,9.69,12.67,9.69,12.67l7.72,13.37a4.19,4.19,0,0,0,3.61,2.1V147.71Z"/><path class="cls-3" d="M313.4,156.18a4.19,4.19,0,0,0-.56-2.1S297.2,127,297.1,126.89a0,0,0,0,0,0,0c-2.91-4.18-12.73-7.26-24.39-7.26-12.91,0-23.55,3.77-25.08,8.63l-7.25,12.4-4.16,7.11h0l0,0v12.67a4.13,4.13,0,0,0,2.14-.56,4.18,4.18,0,0,0,1.8-2.06l7.53-12.87s8.22-12.65,9.62-12.65a1.37,1.37,0,0,1,1.41,1.4v77.9a6.33,6.33,0,0,0,6.31,6.32,6.35,6.35,0,0,0,6.32-6.32V174.35a1.41,1.41,0,0,1,2.81,0v37.19a6.33,6.33,0,0,0,6.31,6.32,6.35,6.35,0,0,0,6.32-6.32v-77.9a1.38,1.38,0,0,1,1.4-1.4c1.39,0,9.69,12.67,9.69,12.67l7.72,13.37a4.21,4.21,0,0,0,7.86-2.11Z"/><path class="cls-3" d="M272.71,116.8c7.75,0,14-6,14-13.33s-6.29-13.33-14-13.33-14,6-14,13.33,6.28,13.33,14,13.33"/><path class="cls-2" d="M199.73,116.8c7.75,0,14-6,14-13.33s-6.28-13.33-14-13.33-14,6-14,13.33,6.29,13.33,14,13.33"/><path class="cls-1" d="M126.75,116.8c7.75,0,14-6,14-13.33s-6.28-13.33-14-13.33-14,6-14,13.33,6.28,13.33,14,13.33"/><polygon class="cls-4" points="50.16 55.04 50.15 55.05 53.56 58.32 50.16 55.04"/><polygon class="cls-5" points="75.78 79.75 75.78 79.74 53.56 58.32 75.82 79.68 75.84 79.71 75.78 79.75"/><path class="cls-3" d="M235.4,18.46A162.2,162.2,0,0,0,199.32,4.81,165.82,165.82,0,0,0,159.58,0,163.56,163.56,0,0,0,97.52,12.08,159.22,159.22,0,0,0,46.81,45c-1.19,1.14-2.34,2.3-3.47,3.46l6.81,6.55v0l3.41,3.29L75.82,79.68l0,0,7,6.75C100.07,49,131,20.21,167.83,9.6c51.53,2.7,96.33,31.94,118.67,67.3l7.72-5.49C279.54,48.5,253.67,27.26,235.4,18.46M90.61,55a161.85,161.85,0,0,0-10.29,16L56.93,48.53a152.26,152.26,0,0,1,84-38C121.76,20.7,104.43,35.94,90.61,55"/><path class="cls-2" d="M285.88,232.29C259.75,270.84,215.7,295,170.55,298.22h0c-37.94-9.83-69.71-39.29-87.35-77.27l-7.16,7a.45.45,0,0,0,0,.1L50.17,253l0,0-6.78,6.57c1.13,1.17,2.27,2.3,3.43,3.44a159.71,159.71,0,0,0,50.72,33A163.69,163.69,0,0,0,159.59,308c3.38,0,6.74-.11,10.11-.31l.78-.06A164.45,164.45,0,0,0,199,303.27a161.92,161.92,0,0,0,35.82-13.43,159,159,0,0,0,58.75-52.11ZM56.93,259.47l23.69-22.83a162.66,162.66,0,0,0,11.14,17.1,152.1,152.1,0,0,0,35.47,34.53,137.7,137.7,0,0,0,15.83,9.48,152.39,152.39,0,0,1-86.13-38.28"/><path class="cls-1" d="M83.17,221l-7.16,7a166.54,166.54,0,0,1-8.31-20.19,168.75,168.75,0,0,1-8.8-49.17H9.47C10.64,195,25.89,228.1,50.15,253l-6.79,6.57A152.88,152.88,0,0,1,12.56,214a149.53,149.53,0,0,1,0-120A152.85,152.85,0,0,1,43.34,48.5l6.81,6.55C26,79.83,10.72,112.83,9.47,149.16H58.89A168.55,168.55,0,0,1,75.76,79.77l0,0,.06,0,7,6.75A160.12,160.12,0,0,0,83.17,221"/><path class="cls-3" d="M413.81,181.94a47.73,47.73,0,0,0,33.84-13.54l6.76,8.13a56.78,56.78,0,0,1-18.67,11.36,64.52,64.52,0,0,1-23.28,4.2,75.4,75.4,0,0,1-22.94-3.25,48.16,48.16,0,0,1-17.46-9.61,42.3,42.3,0,0,1-11.16-15.7A55.08,55.08,0,0,1,357,142a56,56,0,0,1,3.86-21.51,42.41,42.41,0,0,1,11-15.7,47,47,0,0,1,17.12-9.61,71.58,71.58,0,0,1,22.2-3.25,64.43,64.43,0,0,1,23.27,4.2,56.83,56.83,0,0,1,18.68,11.36l-6.77,8.12a47.78,47.78,0,0,0-33.83-13.53,38.85,38.85,0,0,0-13.67,2.37,28.6,28.6,0,0,0-11,7.24,34.35,34.35,0,0,0-7.24,12.38A54.27,54.27,0,0,0,378,142,54.29,54.29,0,0,0,380.59,160,32.91,32.91,0,0,0,388,172.33a30,30,0,0,0,11.37,7.24,42.17,42.17,0,0,0,14.41,2.37"/><path class="cls-3" d="M498.4,116.3a53.72,53.72,0,0,1,16.71,2.5,36.56,36.56,0,0,1,13.06,7.31A33.12,33.12,0,0,1,536.63,138a44.6,44.6,0,0,1,0,32.42,33.2,33.2,0,0,1-8.46,11.84,36.39,36.39,0,0,1-13.06,7.3,57.11,57.11,0,0,1-33.49,0,36.46,36.46,0,0,1-13-7.3,33.3,33.3,0,0,1-8.45-11.84,44.6,44.6,0,0,1,0-32.42,33.22,33.22,0,0,1,8.45-11.91,36.63,36.63,0,0,1,13-7.31,53.49,53.49,0,0,1,16.78-2.5m0,67a20.44,20.44,0,0,0,8.12-1.62,17.63,17.63,0,0,0,6.63-5.08,26,26,0,0,0,4.53-9,46.23,46.23,0,0,0,1.7-13.4,46.21,46.21,0,0,0-1.7-13.39,26,26,0,0,0-4.53-9,17.53,17.53,0,0,0-6.63-5.08,21.16,21.16,0,0,0-16.24,0,17.38,17.38,0,0,0-6.63,5.08,25.83,25.83,0,0,0-4.54,9,46.23,46.23,0,0,0-1.69,13.39,46.26,46.26,0,0,0,1.69,13.4,25.83,25.83,0,0,0,4.54,9,17.48,17.48,0,0,0,6.63,5.08,20.41,20.41,0,0,0,8.12,1.62"/><path class="cls-3" d="M589.75,116.3a53.72,53.72,0,0,1,16.71,2.5,36.56,36.56,0,0,1,13.06,7.31A33.12,33.12,0,0,1,628,138a44.6,44.6,0,0,1,0,32.42,33.2,33.2,0,0,1-8.46,11.84,36.39,36.39,0,0,1-13.06,7.3,57.11,57.11,0,0,1-33.49,0,36.33,36.33,0,0,1-13-7.3,33.2,33.2,0,0,1-8.46-11.84,44.6,44.6,0,0,1,0-32.42A33.12,33.12,0,0,1,560,126.11a36.5,36.5,0,0,1,13-7.31,53.49,53.49,0,0,1,16.78-2.5m0,67a20.44,20.44,0,0,0,8.12-1.62,17.55,17.55,0,0,0,6.63-5.08,25.82,25.82,0,0,0,4.53-9,46.23,46.23,0,0,0,1.7-13.4A46.21,46.21,0,0,0,609,140.8a25.82,25.82,0,0,0-4.53-9,17.45,17.45,0,0,0-6.63-5.08,21.16,21.16,0,0,0-16.24,0A17.38,17.38,0,0,0,575,131.8a25.83,25.83,0,0,0-4.54,9,46.58,46.58,0,0,0-1.69,13.39,46.6,46.6,0,0,0,1.69,13.4,25.83,25.83,0,0,0,4.54,9,17.48,17.48,0,0,0,6.63,5.08,20.41,20.41,0,0,0,8.12,1.62"/><path class="cls-3" d="M679.07,119a55.81,55.81,0,0,1,17,2.43,37.66,37.66,0,0,1,13.06,7,31.08,31.08,0,0,1,8.33,11.1,38.16,38.16,0,0,1,0,29.23,31.08,31.08,0,0,1-8.33,11.1,37.49,37.49,0,0,1-13.06,7,55.81,55.81,0,0,1-17,2.43H662.15v24.36H643.21V119Zm-16.92,9.47v51.43h16.92a24.23,24.23,0,0,0,8.46-1.42,16.32,16.32,0,0,0,6.63-4.54,21.73,21.73,0,0,0,4.33-8,38.89,38.89,0,0,0,1.56-11.77,38.92,38.92,0,0,0-1.56-11.78,21.73,21.73,0,0,0-4.33-8,16.32,16.32,0,0,0-6.63-4.54,24.46,24.46,0,0,0-8.46-1.42Z"/><path class="cls-3" d="M777.19,141.34a38.63,38.63,0,0,0,9-8.6A18.8,18.8,0,0,0,790,121q0-8.67-5.54-13.81t-16.78-5.14a58.19,58.19,0,0,0-18.48,2.78,48,48,0,0,0-16,9.4l-6.09-8.12a57.78,57.78,0,0,1,18.21-10.42,69.7,69.7,0,0,1,23.75-3.79,74.85,74.85,0,0,1,18.54,2,39.21,39.21,0,0,1,13.06,5.75,23.55,23.55,0,0,1,10.35,20,31.63,31.63,0,0,1-1.76,10.9,34.48,34.48,0,0,1-4.67,8.73,43.58,43.58,0,0,1-6.69,7.17q-3.79,3.26-7.86,6.36l-34.5,26.39h56.84v10.15H728.47V178.56Z"/><path class="cls-3" d="M868.54,91.94a60.48,60.48,0,0,1,19.62,3,41,41,0,0,1,15.43,9.27,42,42,0,0,1,10.08,15.63A62,62,0,0,1,917.26,142a62,62,0,0,1-3.59,22.13,42,42,0,0,1-10.08,15.63A41.15,41.15,0,0,1,888.16,189a64.66,64.66,0,0,1-39.25,0,41.18,41.18,0,0,1-15.42-9.27,42,42,0,0,1-10.09-15.63q-3.58-9.4-3.58-22.13t3.58-22.12a42,42,0,0,1,10.09-15.63A41.06,41.06,0,0,1,848.91,95a60.54,60.54,0,0,1,19.63-3m0,9.47a25,25,0,0,0-10.29,2.24,23.49,23.49,0,0,0-8.86,7.1,38.27,38.27,0,0,0-6.23,12.59A64.15,64.15,0,0,0,840.79,142a64.17,64.17,0,0,0,2.37,18.68,38.27,38.27,0,0,0,6.23,12.59,23.49,23.49,0,0,0,8.86,7.1,24.73,24.73,0,0,0,20.57,0,23.52,23.52,0,0,0,8.87-7.1,38.27,38.27,0,0,0,6.22-12.59A64.17,64.17,0,0,0,896.28,142a64.15,64.15,0,0,0-2.37-18.67,38.27,38.27,0,0,0-6.22-12.59,23.52,23.52,0,0,0-8.87-7.1,25,25,0,0,0-10.28-2.24"/></g></g></svg>